# Blender v2.78 (sub 0) OBJ File: ''
# www.blender.org
v 0.500000 -0.500000 -0.636364
v 0.500000 -0.500000 0.363636
v -0.500000 -0.500000 0.363636
v -0.500000 -0.500000 -0.636364
v -0.277778 -0.500000 -0.636364
v -0.277778 -0.500000 -0.414141
v -0.277778 -0.500000 0.141414
v 0.277778 -0.500000 0.141414
v 0.277778 -0.500000 -0.414141
v 0.277778 -0.500000 -0.636364
v 0.500000 -0.277778 -0.636364
v 0.277778 -0.277778 -0.636364
v 0.500000 0.500000 -0.636364
v 0.500000 0.500000 0.363636
v 0.500000 -0.277778 -0.414141
v 0.500000 -0.277778 0.141414
v 0.500000 0.277778 0.141414
v 0.500000 0.277778 -0.414141
v 0.500000 0.277778 -0.636364
v -0.500000 0.500000 0.363636
v -0.500000 0.500000 -0.636364
v -0.500000 0.277778 -0.636364
v -0.500000 0.277778 -0.414141
v -0.500000 0.277778 0.141414
v -0.500000 -0.277778 0.141414
v -0.500000 -0.277778 -0.414141
v -0.500000 -0.277778 -0.636364
v -0.277778 -0.277778 -0.636364
v 0.277778 0.500000 -0.636364
v 0.277778 0.277778 -0.636364
v 0.277778 0.500000 -0.414141
v 0.277778 0.500000 0.141414
v -0.277778 0.500000 0.141414
v -0.277778 0.500000 -0.414141
v -0.277778 0.500000 -0.636364
v -0.277778 0.277778 -0.636364
v -0.277778 0.277778 -0.414141
v -0.277778 0.277778 0.141414
v -0.277778 -0.277778 0.141414
v -0.277778 -0.277778 -0.414141
v 0.277778 0.277778 0.141414
v 0.277778 -0.277778 0.141414
v 0.277778 0.277778 -0.414141
v 0.277778 -0.277778 -0.414141
vt 0.7500 1.0000
vt 0.5000 1.0000
vt 0.6944 0.8889
vt 0.5000 0.5000
vt 0.4444 0.3889
vt 0.5000 0.3889
vt 1.0000 1.0000
vt 0.8056 0.8889
vt 0.0000 -0.0000
vt 0.2500 0.5000
vt 0.0000 0.5000
vt 0.2500 1.0000
vt 0.3056 0.8889
vt 0.2500 0.3889
vt 0.3056 0.5000
vt 0.2500 0.5000
vt 0.5000 -0.0000
vt 0.4444 0.1111
vt 0.4444 -0.0000
vt 0.0000 1.0000
vt 0.1944 0.8889
vt 0.2500 -0.0000
vt 0.3056 0.1111
vt 0.2500 0.1111
vt 0.5000 0.6111
vt 0.5556 0.8889
vt 0.5000 0.8889
vt 0.2500 0.1111
vt 0.3056 0.3889
vt 0.2500 0.3889
vt 1.0000 0.8889
vt 0.9444 0.6111
vt 1.0000 0.6111
vt 0.5000 0.5000
vt 0.5556 0.6111
vt 0.2500 0.8889
vt 0.1944 0.6389
vt 0.2500 0.6389
vt 0.4444 0.1111
vt 0.3056 0.1111
vt 1.0000 0.5000
vt 0.9444 0.5000
vt 0.4444 -0.0000
vt 0.3056 -0.0000
vt 0.1944 0.5000
vt 0.7500 0.6111
vt 0.8056 0.8889
vt 0.7500 0.8889
vt 0.3056 0.5000
vt 0.4444 0.3889
vt 0.4444 0.5000
vt 0.5000 0.3889
vt 0.5000 0.1111
vt 0.2500 0.6111
vt 0.3056 0.8889
vt 0.2500 0.8889
vt 0.8056 0.5000
vt 0.8056 0.6111
vt 0.5000 0.8889
vt 0.4444 0.6111
vt 0.5000 0.6111
vt 0.7500 0.8889
vt 0.6944 0.6111
vt 0.7500 0.6111
vt -0.0000 0.6111
vt 0.0556 0.8889
vt -0.0000 0.8889
vt 0.3056 0.5000
vt 0.3056 0.6111
vt 0.5000 0.5000
vt 0.4444 0.5000
vt 0.6944 0.5000
vt -0.0000 0.5000
vt 0.0556 0.6111
vt 0.6944 0.5000
vt 0.7500 0.5000
vt 0.6944 0.6111
vt 0.5000 0.5000
vt 0.5556 0.8889
vt 0.5556 0.5000
vt 0.5556 0.6111
vt 0.4444 0.5000
vt 0.9444 0.5000
vt 1.0000 0.5000
vt 0.9444 0.6111
vt 0.8056 0.6111
vt 0.8056 0.5000
vt 0.9444 0.8889
vt 0.2500 -0.0000
vt 0.4444 0.5000
vt 0.4444 0.6111
vt 0.2500 0.5000
vt 0.3056 0.6111
vt 0.3056 0.5000
vt 0.4444 0.8889
vt 0.3056 0.3889
vt 0.5000 0.1111
vt 0.1944 0.5000
vt 0.1944 0.6111
vt 0.0000 0.5000
vt 0.0556 0.8889
vt 0.0556 0.5000
vt 0.0556 0.6111
vt 0.3056 -0.0000
vt 0.9444 0.8889
vt 0.5556 0.5000
vt 0.1944 0.8889
vt 0.2500 0.5000
vt 0.7500 0.5000
vt 0.4444 0.8889
vt 0.6944 0.8889
vt 0.2500 0.5000
vt 0.7500 0.5000
vt 0.0556 0.5000
vn 0.0000 -1.0000 0.0000
vn 0.0000 0.0000 -1.0000
vn 1.0000 0.0000 0.0000
vn 0.0000 0.0000 1.0000
vn -1.0000 0.0000 0.0000
vn 0.0000 1.0000 0.0000
s off
f 2/1/1 3/2/1 8/3/1
f 1/4/2 12/5/2 11/6/2
f 14/7/3 2/1/3 16/8/3
f 3/9/4 14/10/4 20/11/4
f 3/2/5 20/12/5 24/13/5
f 27/14/2 5/15/2 4/16/2
f 13/17/2 30/18/2 29/19/2
f 20/12/6 14/20/6 33/21/6
f 21/22/2 36/23/2 22/24/2
f 23/25/1 38/26/1 24/27/1
f 24/28/2 39/29/2 25/30/2
f 33/31/3 37/32/3 34/33/3
f 22/34/1 37/35/1 23/25/1
f 25/36/6 40/37/6 26/38/6
f 41/39/2 39/29/2 38/40/2
f 35/41/3 37/32/3 36/42/3
f 32/43/2 38/40/2 33/44/2
f 28/45/6 26/38/6 40/37/6
f 6/46/3 39/47/3 7/48/3
f 7/49/2 42/50/2 8/51/2
f 16/52/2 41/39/2 17/53/2
f 31/54/5 41/55/5 32/56/5
f 6/46/3 28/57/3 40/58/3
f 8/59/5 44/60/5 9/61/5
f 17/62/1 43/63/1 18/64/1
f 15/65/6 42/66/6 16/67/6
f 31/54/5 30/68/5 43/69/5
f 10/70/5 44/60/5 12/71/5
f 30/72/1 18/64/1 43/63/1
f 11/73/6 44/74/6 15/65/6
f 10/75/1 1/76/1 9/77/1
f 3/2/1 4/78/1 7/79/1
f 5/80/1 6/81/1 4/78/1
f 8/3/1 9/77/1 1/76/1
f 4/78/1 6/81/1 7/79/1
f 8/3/1 1/76/1 2/1/1
f 3/2/1 7/79/1 8/3/1
f 1/4/2 10/82/2 12/5/2
f 19/83/3 13/84/3 18/85/3
f 2/1/3 1/76/3 15/86/3
f 1/76/3 11/87/3 15/86/3
f 18/85/3 13/84/3 14/7/3
f 17/88/3 18/85/3 14/7/3
f 2/1/3 15/86/3 16/8/3
f 16/8/3 17/88/3 14/7/3
f 3/9/4 2/89/4 14/10/4
f 27/90/5 4/78/5 26/91/5
f 20/12/5 21/92/5 23/93/5
f 21/92/5 22/94/5 23/93/5
f 26/91/5 4/78/5 3/2/5
f 25/95/5 26/91/5 3/2/5
f 20/12/5 23/93/5 24/13/5
f 24/13/5 25/95/5 3/2/5
f 27/14/2 28/96/2 5/15/2
f 13/17/2 19/97/2 30/18/2
f 35/98/6 21/92/6 34/99/6
f 14/20/6 13/100/6 32/101/6
f 29/102/6 31/103/6 13/100/6
f 33/21/6 34/99/6 21/92/6
f 13/100/6 31/103/6 32/101/6
f 33/21/6 21/92/6 20/12/6
f 14/20/6 32/101/6 33/21/6
f 21/22/2 35/104/2 36/23/2
f 23/25/1 37/35/1 38/26/1
f 24/28/2 38/40/2 39/29/2
f 33/31/3 38/105/3 37/32/3
f 22/34/1 36/106/1 37/35/1
f 25/36/6 39/107/6 40/37/6
f 41/39/2 42/50/2 39/29/2
f 35/41/3 34/33/3 37/32/3
f 32/43/2 41/39/2 38/40/2
f 28/45/6 27/108/6 26/38/6
f 6/46/3 40/58/3 39/47/3
f 7/49/2 39/29/2 42/50/2
f 16/52/2 42/50/2 41/39/2
f 31/54/5 43/69/5 41/55/5
f 6/46/3 5/109/3 28/57/3
f 8/59/5 42/110/5 44/60/5
f 17/62/1 41/111/1 43/63/1
f 15/65/6 44/74/6 42/66/6
f 31/54/5 29/112/5 30/68/5
f 10/70/5 9/61/5 44/60/5
f 30/72/1 19/113/1 18/64/1
f 11/73/6 12/114/6 44/74/6
